<svg width="150.9528748004908" height="170.0125" viewBox="0 0 350 394.1917308871717" class="looka-1j8o68f"><defs id="SvgjsDefs1013"></defs><g id="SvgjsG1014" featurekey="MI9fam-0" transform="matrix(5.413754168129996,0,0,5.413754168129996,3093.4095416661944,-2053.9782983455875)" fill="#08d9d6"><g xmlns="http://www.w3.org/2000/svg"><g><path d="M-534.9,422.6h-8.1c-2.2,0-3.9-1.8-3.9-3.9v-8.2c0-0.8-0.7-1.5-1.5-1.5h-8.2c-2.2,0-3.9-1.8-3.9-3.9v-8.2    c0-2.2,1.8-3.9,3.9-3.9h8.2c0.8,0,1.5-0.7,1.5-1.5v-8.2c0-2.2,1.8-3.9,3.9-3.9h8.1c2.2,0,3.9,1.8,3.9,3.9v8.2    c0,0.8,0.7,1.5,1.5,1.5h8.2c2.2,0,3.9,1.8,3.9,3.9v8.2c0,2.2-1.8,3.9-3.9,3.9h-8.2c-0.8,0-1.5,0.7-1.5,1.5v8.2    C-531,420.9-532.8,422.6-534.9,422.6z M-556.7,395.4c-0.8,0-1.5,0.7-1.5,1.5v8.2c0,0.8,0.7,1.5,1.5,1.5h8.2c2.2,0,3.9,1.8,3.9,3.9    v8.2c0,0.8,0.7,1.5,1.5,1.5h8.1c0.8,0,1.5-0.7,1.5-1.5v-8.2c0-2.2,1.8-3.9,3.9-3.9h8.2c0.8,0,1.5-0.7,1.5-1.5v-8.2    c0-0.8-0.7-1.5-1.5-1.5h-8.2c-2.2,0-3.9-1.8-3.9-3.9v-8.2c0-0.8-0.7-1.5-1.5-1.5h-8.1c-0.8,0-1.5,0.7-1.5,1.5v8.2    c0,2.2-1.8,3.9-3.9,3.9H-556.7z"></path></g></g></g><g id="SvgjsG1015" featurekey="EI8VXn-0" transform="matrix(6.310855208289986,0,0,6.310855208289986,-10.09737074066419,217.2708216044222)" fill="#252a34"><path d="M9.78 20 q-0.42 -0.68 -0.99 -1.47 t-1.24 -1.58 t-1.39 -1.52 t-1.44 -1.29 l0 5.86 l-3.12 0 l0 -13.86 l3.12 0 l0 5.24 q1.22 -1.28 2.45 -2.67 t2.29 -2.57 l3.7 0 q-1.42 1.68 -2.85 3.24 t-3.01 3.14 q1.66 1.38 3.21 3.28 t2.97 4.2 l-3.7 0 z M19.34 5.98 q3.12 0 4.78 1.11 t1.66 3.45 q0 1.46 -0.67 2.37 t-1.93 1.43 q0.42 0.52 0.88 1.19 t0.91 1.4 t0.87 1.52 t0.78 1.55 l-3.5 0 q-0.38 -0.68 -0.77 -1.38 t-0.8 -1.36 t-0.81 -1.25 t-0.8 -1.07 l-1.54 0 l0 5.06 l-3.12 0 l0 -13.66 q1.02 -0.2 2.11 -0.28 t1.95 -0.08 z M19.52 8.64 q-0.34 0 -0.61 0.02 t-0.51 0.04 l0 3.76 l0.88 0 q1.76 0 2.52 -0.44 t0.76 -1.5 q0 -1.02 -0.77 -1.45 t-2.27 -0.43 z M31.24 13.059999999999999 q0 1.02 0.25 1.84 t0.72 1.41 t1.15 0.91 t1.56 0.32 q0.86 0 1.55 -0.32 t1.16 -0.91 t0.72 -1.41 t0.25 -1.84 t-0.25 -1.85 t-0.72 -1.42 t-1.16 -0.91 t-1.55 -0.32 q-0.88 0 -1.56 0.33 t-1.15 0.92 t-0.72 1.42 t-0.25 1.83 z M41.82 13.059999999999999 q0 1.78 -0.53 3.13 t-1.45 2.26 t-2.19 1.37 t-2.73 0.46 q-1.42 0 -2.68 -0.46 t-2.2 -1.37 t-1.48 -2.26 t-0.54 -3.13 t0.56 -3.13 t1.51 -2.27 t2.2 -1.38 t2.63 -0.46 q1.42 0 2.68 0.46 t2.2 1.38 t1.48 2.27 t0.54 3.13 z M48.54 20 q-0.82 -1.74 -1.62 -3.62 t-1.52 -3.72 t-1.33 -3.52 t-1.05 -3 l3.44 0 q0.4 1.2 0.87 2.59 t0.96 2.77 t0.95 2.64 t0.86 2.18 q0.38 -0.92 0.85 -2.18 t0.96 -2.64 t0.96 -2.77 t0.87 -2.59 l3.32 0 q-0.46 1.32 -1.06 3 t-1.32 3.52 t-1.52 3.72 t-1.62 3.62 l-3 0 z"></path></g><g id="SvgjsG1016" featurekey="EI8VXn-1" transform="matrix(2.692722045734342,0,0,2.692722045734342,-4.308356300366889,339.32835209563007)" fill="#252a34"><path d="M9.96 6.140000000000001 l3.12 0 l0 13.86 l-3.12 0 l0 -5.88 l-5.24 0 l0 5.88 l-3.12 0 l0 -13.86 l3.12 0 l0 5.3 l5.24 0 l0 -5.3 z M16.28 20 l0 -13.86 l9.36 0 l0 2.62 l-6.24 0 l0 2.72 l5.54 0 l0 2.56 l-5.54 0 l0 3.34 l6.7 0 l0 2.62 l-9.82 0 z M37.68 20 q-0.22 -0.72 -0.49 -1.48 t-0.53 -1.52 l-5.4 0 q-0.26 0.76 -0.53 1.52 t-0.49 1.48 l-3.24 0 q0.78 -2.24 1.48 -4.14 t1.37 -3.58 t1.32 -3.19 t1.35 -2.95 l2.98 0 q0.68 1.44 1.34 2.95 t1.33 3.19 t1.37 3.58 t1.48 4.14 l-3.34 0 z M33.94 9.28 q-0.1 0.3 -0.3 0.82 t-0.46 1.2 t-0.57 1.5 t-0.63 1.72 l3.94 0 q-0.32 -0.9 -0.62 -1.72 t-0.57 -1.5 t-0.47 -1.2 t-0.32 -0.82 z M52.08 17.32 l0 2.68 l-9.26 0 l0 -13.86 l3.12 0 l0 11.18 l6.14 0 z M64.36 6.140000000000001 l0 2.66 l-4.18 0 l0 11.2 l-3.12 0 l0 -11.2 l-4.18 0 l0 -2.66 l11.48 0 z M74.72 6.140000000000001 l3.12 0 l0 13.86 l-3.12 0 l0 -5.88 l-5.24 0 l0 5.88 l-3.12 0 l0 -13.86 l3.12 0 l0 5.3 l5.24 0 l0 -5.3 z M87.36 20.28 q-3.38 0 -5.15 -1.88 t-1.77 -5.34 q0 -1.72 0.54 -3.07 t1.48 -2.28 t2.24 -1.41 t2.82 -0.48 q0.88 0 1.6 0.13 t1.26 0.3 t0.9 0.35 t0.52 0.28 l-0.9 2.52 q-0.64 -0.34 -1.49 -0.58 t-1.93 -0.24 q-0.72 0 -1.41 0.24 t-1.22 0.77 t-0.85 1.37 t-0.32 2.04 q0 0.96 0.21 1.79 t0.68 1.43 t1.23 0.95 t1.84 0.35 q0.68 0 1.22 -0.08 t0.96 -0.19 t0.74 -0.25 t0.58 -0.26 l0.86 2.5 q-0.66 0.4 -1.86 0.72 t-2.78 0.32 z M103.28 20 q-0.22 -0.72 -0.49 -1.48 t-0.53 -1.52 l-5.4 0 q-0.26 0.76 -0.53 1.52 t-0.49 1.48 l-3.24 0 q0.78 -2.24 1.48 -4.14 t1.37 -3.58 t1.32 -3.19 t1.35 -2.95 l2.98 0 q0.68 1.44 1.34 2.95 t1.33 3.19 t1.37 3.58 t1.48 4.14 l-3.34 0 z M99.54 9.28 q-0.1 0.3 -0.3 0.82 t-0.46 1.2 t-0.57 1.5 t-0.63 1.72 l3.94 0 q-0.32 -0.9 -0.62 -1.72 t-0.57 -1.5 t-0.47 -1.2 t-0.32 -0.82 z M112.48 5.98 q3.12 0 4.78 1.11 t1.66 3.45 q0 1.46 -0.67 2.37 t-1.93 1.43 q0.42 0.52 0.88 1.19 t0.91 1.4 t0.87 1.52 t0.78 1.55 l-3.5 0 q-0.38 -0.68 -0.77 -1.38 t-0.8 -1.36 t-0.81 -1.25 t-0.8 -1.07 l-1.54 0 l0 5.06 l-3.12 0 l0 -13.66 q1.02 -0.2 2.11 -0.28 t1.95 -0.08 z M112.66000000000001 8.64 q-0.34 0 -0.61 0.02 t-0.51 0.04 l0 3.76 l0.88 0 q1.76 0 2.52 -0.44 t0.76 -1.5 q0 -1.02 -0.77 -1.45 t-2.27 -0.43 z M121.76 20 l0 -13.86 l9.36 0 l0 2.62 l-6.24 0 l0 2.72 l5.54 0 l0 2.56 l-5.54 0 l0 3.34 l6.7 0 l0 2.62 l-9.82 0 z"></path></g></svg>
