<svg width="478.40000000000003" height="58.37111385746451" xmlns="http://www.w3.org/2000/svg"><defs id="SvgjsDefs1205"></defs><g id="SvgjsG1206" featurekey="JKiIdh-0" transform="matrix(0.5788227330650013,0,0,0.5788227330650013,-3.939942935140694,-6.367001486978078)" fill="#01aac1"><title xmlns="http://www.w3.org/2000/svg">103all</title><path xmlns="http://www.w3.org/2000/svg" d="M6.86,39.35a2,2,0,0,0,4-.24,23.1,23.1,0,0,1,6.43-17.52A21.69,21.69,0,0,1,32.93,15c4.45,0,9.82,2.93,15.51,8.47a2.24,2.24,0,0,0,3.14,0A25.06,25.06,0,0,1,69,15.94h.15a18.66,18.66,0,0,1,13.53,5.65,23.25,23.25,0,0,1,0,32.14l-32.14,31a.89.89,0,0,1-1.25,0l-22-21.25a2,2,0,0,0-2.78,2.88l22,21.25a4.88,4.88,0,0,0,6.81,0L85.58,56.56a27.24,27.24,0,0,0,0-37.77,22.58,22.58,0,0,0-16.36-6.86A28.74,28.74,0,0,0,50,19.43C43.91,13.82,38.17,11,32.93,11a25.66,25.66,0,0,0-18.5,7.81A27.1,27.1,0,0,0,6.86,39.35Z"></path><path xmlns="http://www.w3.org/2000/svg" d="M20.35,55.39a2,2,0,0,0,1.7-1l3.26-5.29,4.43,7.06a2,2,0,0,0,3.56-.34l5.82-15,5.37,21.27a2,2,0,0,0,1.71,1.5h.23a2,2,0,0,0,1.77-1.07l6.67-12.78,2.55,4.55a2,2,0,0,0,1.74,1h9.29a2,2,0,0,0,0-4H60.35l-3.79-6.76a2,2,0,0,0-1.74-1h0A2,2,0,0,0,53,44.69l-6,11.41L41.47,33.84a2,2,0,0,0-3.8-.23L31,50.71,27,44.3a2,2,0,0,0-1.69-.94h0a2,2,0,0,0-1.7,1l-4.37,7.08H12.15a2,2,0,1,0,0,4Z"></path></g><g id="SvgjsG1207" featurekey="A7DQL5-0" transform="matrix(1.8827664547188194,0,0,1.8827664547188194,70.00000033666488,0.017070662923248214)" fill="#111111"><path d="M2.56 13.36 l3.96 6.64 l0.78 0 l-4.34 -7.28 z M2.64 12.14 l4.48 -7.84 l-0.8 0 l-5.64 9.94 l0 -9.98 l-0.68 0 l0 11.24 l0.68 0 l0 -0.02 l1.54 -2.68 z M14.3 15.219999999999999 c0.85334 -0.48 1.5067 -1.1567 1.96 -2.03 s0.68 -1.8633 0.68 -2.97 l0 -0.28 c0 -1.64 -0.49 -3 -1.47 -4.08 s-2.3766 -1.62 -4.19 -1.62 l-1.38 0 l0 6.34 c0.22666 0.01334 0.45332 0.02 0.67998 0.02 l0 -5.72 l0.66 0 c1.64 0 2.88 0.47666 3.72 1.43 s1.26 2.1766 1.26 3.67 l0 0.22 c0 1.48 -0.42 2.6934 -1.26 3.64 s-2.08 1.42 -3.72 1.42 l-0.66 0 l0 0 l-0.68 0 l0 0.64 c0.4 0.01334 0.66666 0.02 0.8 0.02 l0.58 0 c0.92 0 1.7267 -0.14 2.42 -0.42 l2.48 4.5 l0.8 0 z M26.58 20 c2.2134 0 4.1 -0.78 5.66 -2.34 c0.77334 -0.76 1.3567 -1.58 1.75 -2.46 s0.59 -1.88 0.59 -3 c0 -2.2266 -0.78 -4.1066 -2.34 -5.64 c-1.56 -1.52 -3.4866 -2.2866 -5.78 -2.3 c-1.4133 0.01334 -2.74 0.36668 -3.98 1.06 c-1.2133 0.70666 -2.18 1.6867 -2.9 2.94 l0.58 0.32 c0.65334 -1.16 1.54 -2.06 2.66 -2.7 c1.1067 -0.64 2.32 -0.96666 3.64 -0.98 c2.1334 0.01334 3.9066 0.72668 5.32 2.14 c1.4133 1.3867 2.1266 3.1066 2.14 5.16 c0 1.0267 -0.18 1.9433 -0.54 2.75 s-0.88666 1.5633 -1.58 2.27 c-1.4267 1.4267 -3.1666 2.14 -5.22 2.14 c-1.28 0 -2.44 -0.27334 -3.48 -0.82 l-0.3 0.58 c1.1333 0.58666 2.3934 0.88 3.78 0.88 z M45.62 4.24 c-0.92 3.1066 -1.6533 5.59 -2.2 7.45 s-1.0467 3.5666 -1.5 5.12 s-0.68 2.3434 -0.68 2.37 l0.24 0.82 l0.16 0 l4.8 -15.76 l-0.82 0 z M40.92 14.68 l-2.86 -10.44 l-0.88 0 l3.34 12.28 z M54.72 13.96 l0 -9.72 l-0.68 0 l0 15.76 l0.68 0 l0 -5.4 l0 -0.64 z M55 14.6 l5.84 0 l0 5.4 l0.68 0 l0 -11.62 l-0.68 0 l0 5.58 l-5.84 0 l0 0.64 z M64.68 14.16 l0 -9.36 l4.8 0 l0 -0.56 l-5.36 0 l0 9.92 l0.56 0 z M69.68 20 l0 -0.54 l-5 0 l0 -4.14 l0.8 0 l0 -0.54 l-1.36 0 l0 5.22 l5.56 0 z M77.62 6.140000000000001 c0 0.08 0.23666 0.84334 0.71 2.29 s0.99 3.03 1.55 4.75 s1.3133 3.9934 2.26 6.82 l0.86 0 l-5.3 -15.76 l-0.16 0 l-5.26 15.76 l0.82 0 z M77.26 15.52 l-0.72 0 l1.2 4.48 l0.72 0 z M86.25999999999999 16.06 l0 -11.82 l-0.66 0 l0 11.82 l0.66 0 z M91.64 20 l0 -0.68 l-5.38 0 l0 -1.96 l-0.66 0 l0 2.64 l6.04 0 z M100.1 4.5 l-0.000019531 -0.26 l-5.86 0 l0 0.64 l3.38 0 l0 15.12 l0.7 0 l0 -15.12 l1.8 0 c-0.02666 -0.21334 -0.03332 -0.34 -0.01998 -0.38 z M100.61999999999999 4.24 l0 0.64 l1.1 0 l0 -0.64 l-1.1 0 z M105 13.96 l0 -9.72 l-0.68 0 l0 15.76 l0.68 0 l0 -5.4 l0 -0.64 z M105.27999999999999 14.6 l5.84 0 l0 5.4 l0.68 0 l0 -11.62 l-0.68 0 l0 5.58 l-5.84 0 l0 0.64 z M121.33999999999999 19.96 l0.039942 -0.63998 c-1.96 -0.13334 -3.52 -0.94668 -4.68 -2.44 c-1.1067 -1.3867 -1.66 -3.06 -1.66 -5.02 c0 -1.0267 0.16666 -1.9167 0.5 -2.67 s0.83334 -1.4833 1.5 -2.19 c1.3333 -1.4 3 -2.1 5 -2.1 c1.2133 0 2.3066 0.26 3.28 0.78 s1.7667 1.2467 2.38 2.18 l0.48 -0.38 c-0.66666 -1.0133 -1.5333 -1.8067 -2.6 -2.38 c-1.0133 -0.54666 -2.16 -0.81332 -3.44 -0.79998 c-1.08 0 -2.0934 0.18334 -3.04 0.55 s-1.78 0.93 -2.5 1.69 c-0.72 0.77334 -1.2633 1.5733 -1.63 2.4 s-0.55 1.8 -0.55 2.92 c0.01334 2.12 0.62 3.9334 1.82 5.44 c1.28 1.6133 2.98 2.5 5.1 2.66 z M122.55999999999999 19.98002 c1.0933 -0.06666 2.0934 -0.32664 3 -0.77998 c1.04 -0.53334 1.9133 -1.2867 2.62 -2.26 l-0.46 -0.4 c-0.64 0.88 -1.4467 1.5733 -2.42 2.08 c-0.84 0.42666 -1.76 0.66666 -2.76 0.72 z M136.12 6.140000000000001 c0 0.08 0.23666 0.84334 0.71 2.29 s0.99 3.03 1.55 4.75 s1.3133 3.9934 2.26 6.82 l0.86 0 l-5.3 -15.76 l-0.16 0 l-5.26 15.76 l0.82 0 z M135.76 15.52 l-0.72 0 l1.2 4.48 l0.72 0 z M148.5 15.219999999999999 c0.85334 -0.48 1.5067 -1.1567 1.96 -2.03 s0.68 -1.8633 0.68 -2.97 l0 -0.28 c0 -1.64 -0.49 -3 -1.47 -4.08 s-2.3766 -1.62 -4.19 -1.62 l-1.38 0 l0 6.34 c0.22666 0.01334 0.45332 0.02 0.67998 0.02 l0 -5.72 l0.66 0 c1.64 0 2.88 0.47666 3.72 1.43 s1.26 2.1766 1.26 3.67 l0 0.22 c0 1.48 -0.42 2.6934 -1.26 3.64 s-2.08 1.42 -3.72 1.42 l-0.66 0 l0 0 l-0.68 0 l0 0.64 c0.4 0.01334 0.66666 0.02 0.8 0.02 l0.58 0 c0.92 0 1.7267 -0.14 2.42 -0.42 l2.48 4.5 l0.8 0 z M154.34 14.16 l0 -9.36 l4.8 0 l0 -0.56 l-5.36 0 l0 9.92 l0.56 0 z M159.34 20 l0 -0.54 l-5 0 l0 -4.14 l0.8 0 l0 -0.54 l-1.36 0 l0 5.22 l5.56 0 z"></path></g></svg>